<?xml version="1.0" encoding="UTF-8" standalone="no"?>
<!-- Uploaded to: SVG Repo, www.svgrepo.com, Generator: SVG Repo Mixer Tools -->

<svg
   fill="#000000"
   width="800px"
   height="800px"
   viewBox="0 0 24 24"
   id="Outline"
   version="1.1"
   sodipodi:docname="ping.svg"
   inkscape:version="1.4.2 (ebf0e940d0, 2025-05-08)"
   xmlns:inkscape="http://www.inkscape.org/namespaces/inkscape"
   xmlns:sodipodi="http://sodipodi.sourceforge.net/DTD/sodipodi-0.dtd"
   xmlns="http://www.w3.org/2000/svg"
   xmlns:svg="http://www.w3.org/2000/svg"
   xmlns:rdf="http://www.w3.org/1999/02/22-rdf-syntax-ns#"
   xmlns:cc="http://creativecommons.org/ns#"
   xmlns:dc="http://purl.org/dc/elements/1.1/">
  <defs
     id="defs1" />
  <sodipodi:namedview
     id="namedview1"
     pagecolor="#ffffff"
     bordercolor="#000000"
     borderopacity="0.25"
     inkscape:showpageshadow="2"
     inkscape:pageopacity="0.0"
     inkscape:pagecheckerboard="0"
     inkscape:deskcolor="#d1d1d1"
     inkscape:zoom="0.38978646"
     inkscape:cx="198.82681"
     inkscape:cy="520.79797"
     inkscape:window-width="1366"
     inkscape:window-height="697"
     inkscape:window-x="0"
     inkscape:window-y="0"
     inkscape:window-maximized="1"
     inkscape:current-layer="Outline" />
  <title
     id="title1">194 restore</title>
  <path
     d="M 23.812,10.132 C 22.292953,0.51090128 10.549168,-3.3876359 3.578,3.415 V 1 c 0,-1.33333275 -2,-1.33333275 -2,0 v 4 c 0,1.1045695 0.8954305,2 2,2 h 4 c 1.3333328,0 1.3333328,-2 0,-2 H 4.827 C 12.347679,-2.6353716 24.967202,5.3175351 21.341725,15.392143 17.716247,25.46675 2.9228243,23.554754 1.992,12.878 1.9382553,12.372778 1.5080089,11.991976 1,12 0.40819463,12.001584 -0.05465763,12.510722 0,13.1 0.66617348,19.812603 6.7325828,24.657422 13.426308,23.822674 20.120032,22.987927 24.810795,16.801625 23.808,10.131 Z"
     id="path1"
     sodipodi:nodetypes="ccsssssscscccscc"
     style="display:inline;fill:#051727;fill-opacity:1" />
  <path
     d="m 12,6 c -0.552285,0 -1,0.4477153 -1,1 v 5 c 5.7e-5,0.265195 0.105451,0.519507 0.293,0.707 l 3,3 c 0.942526,0.910322 2.324322,-0.471474 1.414,-1.414 L 13,11.586 V 7 C 13,6.4477153 12.552285,6 12,6 Z"
     id="path7"
     style="display:inline;fill:#b3282d;fill-opacity:1"
     sodipodi:nodetypes="sscccccss" />
  <metadata
     id="metadata7">
    <rdf:RDF>
      <cc:Work
         rdf:about="">
        <dc:title>194 restore</dc:title>
      </cc:Work>
    </rdf:RDF>
  </metadata>
</svg>
